<?xml version="1.0" encoding="UTF-8"?>
<svg clip-rule="evenodd" fill-rule="evenodd" stroke-miterlimit="10" version="1.1" viewBox="0 0 380 380" xml:space="preserve" xmlns="http://www.w3.org/2000/svg">
    <path id="mask" d="M 110 0 A 110 110 0 0 0 0 110 L 0 270 A 110 110 0 0 0 110 380 L 270 380 A 110 110 0 0 0 380 270 L 380 110 A 110 110 0 0 0 270 0 L 110 0 z M 267.49219 105.75 L 280.17383 107.05664 C 297.18496 108.8107 309.64722 120.77957 317.35156 134.51172 C 325.0559 148.24391 329.40942 164.55676 332.29297 180.74023 C 338.06005 213.1072 337.53178 246.79272 337.61328 250.45703 C 337.70362 254.52031 337.27342 258.73688 335.08594 263.01172 C 332.89846 267.28654 328.46636 270.98871 324.13086 272.47266 C 315.45987 275.44053 308.73674 273.27439 301.11133 270.92383 C 188.23606 236.13335 59.828125 266.14062 59.828125 266.14062 L 47.425781 269.10156 L 41.503906 244.29883 L 53.90625 241.33789 C 53.90625 241.33789 186.71901 208.98137 308.62305 246.55469 L 308.62305 246.55664 C 310.13948 247.02408 310.89764 247.04066 312.0332 247.24023 C 311.93273 237.49445 311.98648 212.13546 307.18945 185.21289 C 304.59215 170.63585 300.48528 156.5668 295.11133 146.98828 C 289.73736 137.40976 284.5019 133.1378 277.55859 132.42188 L 264.87695 131.11523 L 267.49219 105.75 z M 109.39062 138.40039 L 155.79492 181.23438 L 141.9375 196.24609 L 110.3418 167.08008 L 80.277344 198.77148 L 65.457031 184.70898 L 109.39062 138.40039 z M 247.35742 138.40234 L 290.28516 183.71484 L 275.45508 197.76562 L 246.38086 167.07812 L 215.79102 195.25391 L 201.94922 180.22656 L 247.35742 138.40234 z"/>
</svg>
